<svg width="596" height="597" viewBox="0 0 596 597" fill="none" xmlns="http://www.w3.org/2000/svg">
<path d="M231.682 296.77C230.042 296.77 228.712 298.1 228.712 299.74C228.712 301.381 230.042 302.71 231.682 302.71L231.682 296.77ZM286.935 301.84C288.095 300.68 288.095 298.8 286.935 297.64L268.034 278.739C266.874 277.579 264.994 277.579 263.834 278.739C262.674 279.899 262.674 281.78 263.834 282.939L280.635 299.74L263.834 316.541C262.674 317.701 262.674 319.581 263.834 320.741C264.994 321.901 266.874 321.901 268.034 320.741L286.935 301.84ZM231.682 302.71L284.835 302.71L284.835 296.77L231.682 296.77L231.682 302.71Z" fill="#545454"/>
<rect x="317.069" y="101.041" width="243.542" height="94.37" rx="9.50401" fill="#C1E0FD"/>
<path d="M352.136 120.819H357.393L362.945 134.364H363.181L368.733 120.819H373.989V140.979H369.855V127.857H369.688L364.471 140.88H361.655L356.438 127.808H356.271V140.979H352.136V120.819ZM377.422 140.979V125.859H381.616V140.979H377.422ZM379.529 123.909C378.906 123.909 378.371 123.703 377.924 123.289C377.485 122.869 377.265 122.367 377.265 121.783C377.265 121.206 377.485 120.71 377.924 120.297C378.371 119.877 378.906 119.667 379.529 119.667C380.152 119.667 380.684 119.877 381.124 120.297C381.57 120.71 381.793 121.206 381.793 121.783C381.793 122.367 381.57 122.869 381.124 123.289C380.684 123.703 380.152 123.909 379.529 123.909ZM397.555 130.17L393.716 130.406C393.651 130.078 393.51 129.783 393.293 129.52C393.076 129.251 392.791 129.038 392.437 128.881C392.089 128.716 391.672 128.634 391.186 128.634C390.537 128.634 389.989 128.772 389.543 129.048C389.096 129.317 388.873 129.678 388.873 130.131C388.873 130.492 389.018 130.797 389.306 131.046C389.595 131.296 390.091 131.496 390.793 131.647L393.529 132.198C394.999 132.5 396.095 132.985 396.817 133.655C397.539 134.324 397.9 135.204 397.9 136.293C397.9 137.284 397.608 138.153 397.024 138.901C396.446 139.65 395.652 140.234 394.642 140.654C393.638 141.067 392.479 141.274 391.167 141.274C389.165 141.274 387.571 140.857 386.383 140.024C385.201 139.184 384.509 138.042 384.306 136.598L388.43 136.381C388.555 136.992 388.857 137.458 389.336 137.779C389.815 138.094 390.428 138.252 391.177 138.252C391.912 138.252 392.502 138.111 392.948 137.829C393.401 137.54 393.631 137.169 393.638 136.716C393.631 136.336 393.47 136.024 393.155 135.781C392.84 135.532 392.355 135.341 391.698 135.21L389.08 134.688C387.603 134.393 386.504 133.881 385.782 133.153C385.067 132.424 384.709 131.496 384.709 130.367C384.709 129.396 384.972 128.559 385.497 127.857C386.028 127.155 386.773 126.613 387.731 126.233C388.696 125.852 389.825 125.662 391.118 125.662C393.027 125.662 394.53 126.065 395.626 126.872C396.728 127.68 397.372 128.779 397.555 130.17ZM407.372 141.274C405.843 141.274 404.521 140.949 403.405 140.299C402.296 139.643 401.44 138.731 400.836 137.563C400.232 136.388 399.93 135.026 399.93 133.478C399.93 131.916 400.232 130.551 400.836 129.383C401.44 128.208 402.296 127.296 403.405 126.646C404.521 125.99 405.843 125.662 407.372 125.662C408.901 125.662 410.22 125.99 411.329 126.646C412.445 127.296 413.305 128.208 413.908 129.383C414.512 130.551 414.814 131.916 414.814 133.478C414.814 135.026 414.512 136.388 413.908 137.563C413.305 138.731 412.445 139.643 411.329 140.299C410.22 140.949 408.901 141.274 407.372 141.274ZM407.392 138.025C408.087 138.025 408.668 137.829 409.134 137.435C409.6 137.034 409.951 136.49 410.187 135.801C410.43 135.112 410.552 134.327 410.552 133.448C410.552 132.569 410.43 131.784 410.187 131.095C409.951 130.406 409.6 129.862 409.134 129.461C408.668 129.061 408.087 128.861 407.392 128.861C406.69 128.861 406.099 129.061 405.62 129.461C405.147 129.862 404.79 130.406 404.547 131.095C404.311 131.784 404.193 132.569 404.193 133.448C404.193 134.327 404.311 135.112 404.547 135.801C404.79 136.49 405.147 137.034 405.62 137.435C406.099 137.829 406.69 138.025 407.392 138.025ZM424.353 146.964C422.994 146.964 421.829 146.776 420.858 146.402C419.893 146.035 419.125 145.533 418.555 144.896C417.984 144.26 417.613 143.544 417.442 142.75L421.321 142.229C421.439 142.531 421.626 142.813 421.882 143.075C422.138 143.338 422.476 143.548 422.896 143.705C423.322 143.869 423.841 143.951 424.451 143.951C425.363 143.951 426.115 143.728 426.705 143.282C427.302 142.842 427.601 142.104 427.601 141.067V138.301H427.424C427.24 138.721 426.964 139.118 426.597 139.492C426.229 139.866 425.757 140.171 425.179 140.408C424.602 140.644 423.913 140.762 423.112 140.762C421.977 140.762 420.943 140.499 420.011 139.974C419.086 139.443 418.348 138.632 417.797 137.543C417.252 136.447 416.98 135.062 416.98 133.389C416.98 131.676 417.258 130.246 417.816 129.097C418.374 127.949 419.116 127.089 420.041 126.518C420.973 125.947 421.993 125.662 423.102 125.662C423.949 125.662 424.658 125.806 425.229 126.095C425.8 126.377 426.259 126.731 426.607 127.158C426.961 127.578 427.233 127.991 427.424 128.398H427.581V125.859H431.745V141.126C431.745 142.412 431.43 143.489 430.8 144.355C430.17 145.221 429.297 145.871 428.182 146.304C427.073 146.744 425.796 146.964 424.353 146.964ZM424.441 137.612C425.117 137.612 425.688 137.445 426.154 137.11C426.626 136.769 426.987 136.283 427.237 135.653C427.493 135.016 427.621 134.255 427.621 133.369C427.621 132.483 427.496 131.716 427.247 131.066C426.997 130.41 426.636 129.901 426.164 129.54C425.691 129.179 425.117 128.999 424.441 128.999C423.752 128.999 423.171 129.186 422.699 129.56C422.226 129.927 421.869 130.439 421.626 131.095C421.383 131.752 421.262 132.51 421.262 133.369C421.262 134.242 421.383 134.997 421.626 135.633C421.875 136.263 422.233 136.752 422.699 137.1C423.171 137.441 423.752 137.612 424.441 137.612ZM437.671 146.649C437.14 146.649 436.641 146.606 436.175 146.521C435.715 146.442 435.335 146.34 435.033 146.215L435.978 143.085C436.47 143.236 436.913 143.318 437.307 143.331C437.707 143.344 438.052 143.252 438.34 143.056C438.636 142.859 438.875 142.524 439.059 142.051L439.305 141.412L433.881 125.859H438.291L441.422 136.962H441.579L444.739 125.859H449.178L443.302 142.613C443.02 143.426 442.636 144.135 442.15 144.739C441.671 145.349 441.064 145.818 440.329 146.146C439.594 146.481 438.708 146.649 437.671 146.649ZM455.518 132.237V140.979H451.324V125.859H455.321V128.526H455.498C455.833 127.647 456.394 126.951 457.181 126.439C457.969 125.921 458.924 125.662 460.046 125.662C461.096 125.662 462.011 125.891 462.792 126.351C463.573 126.81 464.18 127.466 464.613 128.319C465.047 129.166 465.263 130.177 465.263 131.351V140.979H461.07V132.099C461.076 131.174 460.84 130.452 460.361 129.934C459.882 129.409 459.222 129.146 458.382 129.146C457.818 129.146 457.319 129.268 456.886 129.511C456.46 129.753 456.125 130.108 455.882 130.574C455.646 131.033 455.524 131.588 455.518 132.237ZM468.568 140.979V125.859H472.762V140.979H468.568ZM470.675 123.909C470.051 123.909 469.516 123.703 469.07 123.289C468.631 122.869 468.411 122.367 468.411 121.783C468.411 121.206 468.631 120.71 469.07 120.297C469.516 119.877 470.051 119.667 470.675 119.667C471.298 119.667 471.83 119.877 472.269 120.297C472.716 120.71 472.939 121.206 472.939 121.783C472.939 122.367 472.716 122.869 472.269 123.289C471.83 123.703 471.298 123.909 470.675 123.909ZM488.701 130.17L484.862 130.406C484.796 130.078 484.655 129.783 484.439 129.52C484.222 129.251 483.937 129.038 483.582 128.881C483.235 128.716 482.818 128.634 482.332 128.634C481.683 128.634 481.135 128.772 480.688 129.048C480.242 129.317 480.019 129.678 480.019 130.131C480.019 130.492 480.163 130.797 480.452 131.046C480.741 131.296 481.236 131.496 481.938 131.647L484.675 132.198C486.145 132.5 487.241 132.985 487.963 133.655C488.685 134.324 489.046 135.204 489.046 136.293C489.046 137.284 488.754 138.153 488.17 138.901C487.592 139.65 486.798 140.234 485.787 140.654C484.783 141.067 483.625 141.274 482.313 141.274C480.311 141.274 478.716 140.857 477.528 140.024C476.347 139.184 475.655 138.042 475.451 136.598L479.576 136.381C479.701 136.992 480.003 137.458 480.482 137.779C480.961 138.094 481.574 138.252 482.322 138.252C483.057 138.252 483.648 138.111 484.094 137.829C484.547 137.54 484.777 137.169 484.783 136.716C484.777 136.336 484.616 136.024 484.301 135.781C483.986 135.532 483.5 135.341 482.844 135.21L480.226 134.688C478.749 134.393 477.65 133.881 476.928 133.153C476.213 132.424 475.855 131.496 475.855 130.367C475.855 129.396 476.118 128.559 476.643 127.857C477.174 127.155 477.919 126.613 478.877 126.233C479.842 125.852 480.97 125.662 482.263 125.662C484.173 125.662 485.676 126.065 486.772 126.872C487.874 127.68 488.517 128.779 488.701 130.17ZM499.729 125.859V129.009H490.623V125.859L499.729 125.859ZM492.69 122.236H496.884V136.332C496.884 136.719 496.943 137.021 497.061 137.238C497.179 137.448 497.343 137.596 497.553 137.681C497.77 137.766 498.019 137.809 498.301 137.809C498.498 137.809 498.695 137.792 498.892 137.76C499.089 137.72 499.24 137.691 499.345 137.671L500.004 140.791C499.794 140.857 499.499 140.933 499.118 141.018C498.738 141.11 498.275 141.166 497.73 141.185C496.72 141.225 495.834 141.09 495.072 140.782C494.318 140.473 493.73 139.994 493.31 139.344C492.89 138.695 492.684 137.874 492.69 136.884V122.236ZM502.46 140.979V125.859H506.654V140.979H502.46ZM504.567 123.909C503.943 123.909 503.408 123.703 502.962 123.289C502.523 122.869 502.303 122.367 502.303 121.783C502.303 121.206 502.523 120.71 502.962 120.297C503.408 119.877 503.943 119.667 504.567 119.667C505.19 119.667 505.722 119.877 506.161 120.297C506.608 120.71 506.831 121.206 506.831 121.783C506.831 122.367 506.608 122.869 506.161 123.289C505.722 123.703 505.19 123.909 504.567 123.909ZM516.844 141.274C515.296 141.274 513.963 140.946 512.848 140.289C511.739 139.627 510.886 138.708 510.288 137.533C509.698 136.359 509.403 135.007 509.403 133.478C509.403 131.929 509.701 130.57 510.298 129.402C510.902 128.228 511.758 127.312 512.868 126.656C513.977 125.993 515.296 125.662 516.825 125.662C518.144 125.662 519.299 125.901 520.29 126.38C521.281 126.859 522.065 127.532 522.642 128.398C523.22 129.264 523.538 130.282 523.597 131.45H519.64C519.528 130.695 519.233 130.088 518.754 129.629C518.282 129.163 517.661 128.93 516.894 128.93C516.244 128.93 515.676 129.107 515.191 129.461C514.712 129.809 514.338 130.318 514.068 130.987C513.799 131.656 513.665 132.467 513.665 133.419C513.665 134.383 513.796 135.204 514.059 135.879C514.328 136.555 514.705 137.071 515.191 137.425C515.676 137.779 516.244 137.956 516.894 137.956C517.373 137.956 517.803 137.858 518.183 137.661C518.57 137.464 518.889 137.179 519.138 136.805C519.394 136.424 519.561 135.968 519.64 135.436H523.597C523.532 136.591 523.217 137.609 522.652 138.488C522.094 139.361 521.323 140.043 520.339 140.536C519.355 141.028 518.19 141.274 516.844 141.274ZM380.438 154.819V174.979H376.245V154.819H380.438ZM388.109 175.264C387.144 175.264 386.285 175.097 385.53 174.762C384.775 174.421 384.178 173.919 383.738 173.256C383.305 172.586 383.089 171.753 383.089 170.756C383.089 169.916 383.243 169.21 383.551 168.639C383.86 168.068 384.28 167.609 384.811 167.261C385.343 166.913 385.947 166.651 386.623 166.474C387.305 166.296 388.02 166.172 388.769 166.099C389.648 166.008 390.357 165.922 390.895 165.844C391.433 165.758 391.823 165.634 392.066 165.469C392.309 165.305 392.43 165.063 392.43 164.741V164.682C392.43 164.059 392.234 163.576 391.84 163.235C391.453 162.894 390.901 162.723 390.186 162.723C389.431 162.723 388.831 162.89 388.385 163.225C387.938 163.553 387.643 163.967 387.499 164.465L383.62 164.15C383.817 163.232 384.204 162.438 384.782 161.768C385.359 161.092 386.104 160.574 387.016 160.213C387.935 159.845 388.998 159.662 390.206 159.662C391.046 159.662 391.85 159.76 392.617 159.957C393.392 160.154 394.078 160.459 394.675 160.872C395.279 161.286 395.754 161.817 396.102 162.467C396.45 163.11 396.624 163.881 396.624 164.78V174.979H392.647V172.882H392.529C392.286 173.354 391.961 173.771 391.554 174.132C391.147 174.486 390.659 174.765 390.088 174.969C389.517 175.166 388.857 175.264 388.109 175.264ZM389.31 172.37C389.927 172.37 390.472 172.249 390.944 172.006C391.417 171.756 391.787 171.422 392.056 171.002C392.325 170.582 392.46 170.106 392.46 169.574V167.97C392.329 168.055 392.148 168.134 391.919 168.206C391.695 168.272 391.443 168.334 391.161 168.393C390.878 168.446 390.596 168.495 390.314 168.541C390.032 168.58 389.776 168.616 389.546 168.649C389.054 168.721 388.624 168.836 388.257 168.994C387.889 169.151 387.604 169.364 387.4 169.633C387.197 169.896 387.095 170.224 387.095 170.618C387.095 171.189 387.302 171.625 387.715 171.927C388.135 172.222 388.667 172.37 389.31 172.37ZM404.071 166.237V174.979H399.877V159.859H403.874V162.526H404.051C404.386 161.647 404.947 160.951 405.734 160.439C406.522 159.921 407.477 159.662 408.599 159.662C409.649 159.662 410.564 159.891 411.345 160.351C412.126 160.81 412.733 161.466 413.166 162.319C413.599 163.166 413.816 164.177 413.816 165.351V174.979H409.623V166.099C409.629 165.174 409.393 164.452 408.914 163.934C408.435 163.409 407.775 163.146 406.935 163.146C406.371 163.146 405.872 163.268 405.439 163.511C405.012 163.753 404.678 164.108 404.435 164.574C404.199 165.033 404.077 165.588 404.071 166.237ZM423.933 180.964C422.574 180.964 421.41 180.776 420.438 180.402C419.474 180.035 418.706 179.533 418.135 178.896C417.564 178.26 417.193 177.544 417.023 176.75L420.901 176.229C421.019 176.531 421.206 176.813 421.462 177.075C421.718 177.338 422.056 177.548 422.476 177.705C422.903 177.869 423.421 177.951 424.031 177.951C424.944 177.951 425.695 177.728 426.286 177.282C426.883 176.842 427.181 176.104 427.181 175.067V172.301H427.004C426.82 172.721 426.545 173.118 426.177 173.492C425.81 173.866 425.337 174.171 424.76 174.408C424.182 174.644 423.493 174.762 422.693 174.762C421.557 174.762 420.524 174.499 419.592 173.974C418.667 173.443 417.928 172.632 417.377 171.543C416.832 170.447 416.56 169.062 416.56 167.389C416.56 165.676 416.839 164.246 417.397 163.097C417.954 161.949 418.696 161.089 419.621 160.518C420.553 159.947 421.574 159.662 422.683 159.662C423.529 159.662 424.238 159.806 424.809 160.095C425.38 160.377 425.839 160.731 426.187 161.158C426.542 161.578 426.814 161.991 427.004 162.398H427.162V159.859H431.326V175.126C431.326 176.412 431.011 177.489 430.381 178.355C429.751 179.221 428.878 179.871 427.762 180.304C426.653 180.744 425.377 180.964 423.933 180.964ZM424.022 171.612C424.697 171.612 425.268 171.445 425.734 171.11C426.207 170.769 426.568 170.283 426.817 169.653C427.073 169.016 427.201 168.255 427.201 167.369C427.201 166.483 427.076 165.716 426.827 165.066C426.578 164.41 426.217 163.901 425.744 163.54C425.272 163.179 424.697 162.999 424.022 162.999C423.332 162.999 422.752 163.186 422.279 163.56C421.807 163.927 421.449 164.439 421.206 165.095C420.963 165.752 420.842 166.51 420.842 167.369C420.842 168.242 420.963 168.997 421.206 169.633C421.456 170.263 421.813 170.752 422.279 171.1C422.752 171.441 423.332 171.612 424.022 171.612ZM444.359 168.541V159.859H448.552V174.979H444.526V172.232H444.369C444.027 173.118 443.46 173.83 442.666 174.368C441.878 174.906 440.917 175.175 439.781 175.175C438.771 175.175 437.882 174.946 437.114 174.486C436.346 174.027 435.745 173.374 435.312 172.527C434.886 171.681 434.669 170.667 434.663 169.486V159.859H438.856V168.738C438.863 169.63 439.102 170.336 439.575 170.854C440.047 171.372 440.68 171.632 441.474 171.632C441.98 171.632 442.452 171.517 442.892 171.287C443.332 171.051 443.686 170.703 443.955 170.244C444.231 169.784 444.365 169.217 444.359 168.541ZM456.218 175.264C455.253 175.264 454.394 175.097 453.639 174.762C452.884 174.421 452.287 173.919 451.847 173.256C451.414 172.586 451.198 171.753 451.198 170.756C451.198 169.916 451.352 169.21 451.66 168.639C451.969 168.068 452.389 167.609 452.92 167.261C453.452 166.913 454.056 166.651 454.732 166.474C455.414 166.296 456.129 166.172 456.878 166.099C457.757 166.008 458.466 165.922 459.004 165.844C459.542 165.758 459.932 165.634 460.175 165.469C460.418 165.305 460.539 165.063 460.539 164.741V164.682C460.539 164.059 460.343 163.576 459.949 163.235C459.562 162.894 459.01 162.723 458.295 162.723C457.54 162.723 456.94 162.89 456.494 163.225C456.047 163.553 455.752 163.967 455.608 164.465L451.729 164.15C451.926 163.232 452.313 162.438 452.891 161.768C453.468 161.092 454.213 160.574 455.125 160.213C456.044 159.845 457.107 159.662 458.315 159.662C459.155 159.662 459.959 159.76 460.726 159.957C461.501 160.154 462.187 160.459 462.784 160.872C463.388 161.286 463.863 161.817 464.211 162.467C464.559 163.11 464.733 163.881 464.733 164.78V174.979H460.756V172.882H460.638C460.395 173.354 460.07 173.771 459.663 174.132C459.256 174.486 458.768 174.765 458.197 174.969C457.626 175.166 456.966 175.264 456.218 175.264ZM457.419 172.37C458.036 172.37 458.58 172.249 459.053 172.006C459.525 171.756 459.896 171.422 460.165 171.002C460.434 170.582 460.569 170.106 460.569 169.574V167.97C460.438 168.055 460.257 168.134 460.028 168.206C459.804 168.272 459.552 168.334 459.27 168.393C458.987 168.446 458.705 168.495 458.423 168.541C458.141 168.58 457.885 168.616 457.655 168.649C457.163 168.721 456.733 168.836 456.366 168.994C455.998 169.151 455.713 169.364 455.509 169.633C455.306 169.896 455.204 170.224 455.204 170.618C455.204 171.189 455.411 171.625 455.824 171.927C456.244 172.222 456.776 172.37 457.419 172.37ZM474.798 180.964C473.44 180.964 472.275 180.776 471.304 180.402C470.339 180.035 469.571 179.533 469 178.896C468.429 178.26 468.058 177.544 467.888 176.75L471.766 176.229C471.884 176.531 472.071 176.813 472.327 177.075C472.583 177.338 472.921 177.548 473.341 177.705C473.768 177.869 474.286 177.951 474.896 177.951C475.809 177.951 476.56 177.728 477.151 177.282C477.748 176.842 478.046 176.104 478.046 175.067V172.301H477.869C477.686 172.721 477.41 173.118 477.042 173.492C476.675 173.866 476.202 174.171 475.625 174.408C475.047 174.644 474.358 174.762 473.558 174.762C472.422 174.762 471.389 174.499 470.457 173.974C469.532 173.443 468.793 172.632 468.242 171.543C467.697 170.447 467.425 169.062 467.425 167.389C467.425 165.676 467.704 164.246 468.262 163.097C468.82 161.949 469.561 161.089 470.486 160.518C471.418 159.947 472.439 159.662 473.548 159.662C474.394 159.662 475.103 159.806 475.674 160.095C476.245 160.377 476.704 160.731 477.052 161.158C477.407 161.578 477.679 161.991 477.869 162.398H478.027V159.859H482.191V175.126C482.191 176.412 481.876 177.489 481.246 178.355C480.616 179.221 479.743 179.871 478.627 180.304C477.518 180.744 476.242 180.964 474.798 180.964ZM474.887 171.612C475.563 171.612 476.134 171.445 476.599 171.11C477.072 170.769 477.433 170.283 477.682 169.653C477.938 169.016 478.066 168.255 478.066 167.369C478.066 166.483 477.941 165.716 477.692 165.066C477.443 164.41 477.082 163.901 476.609 163.54C476.137 163.179 475.563 162.999 474.887 162.999C474.198 162.999 473.617 163.186 473.144 163.56C472.672 163.927 472.314 164.439 472.071 165.095C471.829 165.752 471.707 166.51 471.707 167.369C471.707 168.242 471.829 168.997 472.071 169.633C472.321 170.263 472.678 170.752 473.144 171.1C473.617 171.441 474.198 171.612 474.887 171.612ZM492.418 175.274C490.863 175.274 489.524 174.959 488.402 174.329C487.286 173.692 486.427 172.793 485.823 171.632C485.219 170.464 484.917 169.082 484.917 167.487C484.917 165.932 485.219 164.567 485.823 163.392C486.427 162.218 487.277 161.302 488.373 160.646C489.475 159.99 490.768 159.662 492.251 159.662C493.249 159.662 494.177 159.822 495.037 160.144C495.903 160.459 496.658 160.935 497.301 161.571C497.951 162.208 498.456 163.009 498.817 163.973C499.178 164.931 499.358 166.054 499.358 167.34V168.491H486.591V165.893H495.411C495.411 165.289 495.28 164.754 495.017 164.288C494.755 163.822 494.39 163.458 493.924 163.196C493.465 162.926 492.93 162.792 492.32 162.792C491.683 162.792 491.119 162.94 490.627 163.235C490.141 163.524 489.761 163.914 489.485 164.406C489.209 164.892 489.068 165.433 489.062 166.031V168.501C489.062 169.249 489.199 169.896 489.475 170.441C489.757 170.985 490.154 171.405 490.666 171.701C491.178 171.996 491.785 172.144 492.487 172.144C492.953 172.144 493.38 172.078 493.767 171.947C494.154 171.815 494.486 171.619 494.761 171.356C495.037 171.094 495.247 170.772 495.391 170.391L499.27 170.647C499.073 171.579 498.669 172.393 498.059 173.089C497.455 173.778 496.674 174.316 495.716 174.703C494.764 175.084 493.665 175.274 492.418 175.274Z" fill="#545454"/>
<rect x="317.069" y="220.047" width="243.542" height="94.37" rx="9.50401" fill="#C1E0FD"/>
<path d="M342.505 257.449L347.378 272.766H347.565L352.447 257.449H357.172L350.222 277.609H344.73L337.77 257.449H342.505ZM359.52 277.609V262.489H363.713V277.609H359.52ZM361.626 260.54C361.003 260.54 360.468 260.334 360.022 259.92C359.582 259.5 359.362 258.998 359.362 258.414C359.362 257.837 359.582 257.341 360.022 256.928C360.468 256.508 361.003 256.298 361.626 256.298C362.25 256.298 362.781 256.508 363.221 256.928C363.667 257.341 363.89 257.837 363.89 258.414C363.89 258.998 363.667 259.5 363.221 259.92C362.781 260.334 362.25 260.54 361.626 260.54ZM373.904 277.905C372.355 277.905 371.023 277.577 369.907 276.92C368.798 276.257 367.945 275.339 367.348 274.164C366.757 272.989 366.462 271.637 366.462 270.108C366.462 268.56 366.761 267.201 367.358 266.033C367.962 264.858 368.818 263.943 369.927 263.287C371.036 262.624 372.355 262.292 373.884 262.292C375.203 262.292 376.358 262.532 377.349 263.011C378.34 263.49 379.124 264.163 379.702 265.029C380.279 265.895 380.598 266.912 380.657 268.081H376.7C376.588 267.326 376.293 266.719 375.814 266.26C375.341 265.794 374.721 265.561 373.953 265.561C373.304 265.561 372.736 265.738 372.25 266.092C371.771 266.44 371.397 266.949 371.128 267.618C370.859 268.287 370.724 269.098 370.724 270.049C370.724 271.014 370.856 271.834 371.118 272.51C371.387 273.186 371.765 273.701 372.25 274.056C372.736 274.41 373.304 274.587 373.953 274.587C374.432 274.587 374.862 274.489 375.243 274.292C375.63 274.095 375.948 273.81 376.198 273.436C376.454 273.055 376.621 272.599 376.7 272.067H380.657C380.591 273.222 380.276 274.24 379.712 275.119C379.154 275.992 378.383 276.674 377.399 277.166C376.414 277.659 375.249 277.905 373.904 277.905ZM391.384 262.489V265.639H382.279V262.489H391.384ZM384.346 258.867H388.539V272.963C388.539 273.35 388.598 273.652 388.716 273.869C388.834 274.079 388.999 274.226 389.209 274.312C389.425 274.397 389.674 274.44 389.957 274.44C390.154 274.44 390.35 274.423 390.547 274.39C390.744 274.351 390.895 274.322 391 274.302L391.66 277.422C391.45 277.488 391.154 277.563 390.774 277.649C390.393 277.741 389.93 277.796 389.386 277.816C388.375 277.855 387.489 277.721 386.728 277.412C385.973 277.104 385.386 276.625 384.966 275.975C384.546 275.326 384.339 274.505 384.346 273.514V258.867ZM394.116 277.609V262.489H398.309V277.609H394.116ZM396.222 260.54C395.599 260.54 395.064 260.334 394.618 259.92C394.178 259.5 393.958 258.998 393.958 258.414C393.958 257.837 394.178 257.341 394.618 256.928C395.064 256.508 395.599 256.298 396.222 256.298C396.846 256.298 397.377 256.508 397.817 256.928C398.263 257.341 398.486 257.837 398.486 258.414C398.486 258.998 398.263 259.5 397.817 259.92C397.377 260.334 396.846 260.54 396.222 260.54ZM401.668 277.609V262.489H405.665V265.157H405.842C406.157 264.271 406.682 263.572 407.417 263.06C408.152 262.548 409.031 262.292 410.055 262.292C411.092 262.292 411.975 262.552 412.703 263.07C413.432 263.582 413.917 264.278 414.16 265.157H414.318C414.626 264.291 415.184 263.598 415.991 263.08C416.805 262.555 417.766 262.292 418.875 262.292C420.286 262.292 421.431 262.742 422.311 263.641C423.197 264.534 423.64 265.8 423.64 267.441V277.609H419.456V268.268C419.456 267.428 419.233 266.798 418.787 266.378C418.34 265.958 417.783 265.748 417.113 265.748C416.352 265.748 415.758 265.99 415.331 266.476C414.905 266.955 414.692 267.588 414.692 268.376V277.609H410.626V268.179C410.626 267.437 410.413 266.847 409.986 266.407C409.566 265.967 409.012 265.748 408.323 265.748C407.857 265.748 407.437 265.866 407.063 266.102C406.695 266.332 406.403 266.657 406.187 267.077C405.97 267.49 405.862 267.976 405.862 268.533V277.609H401.668ZM433.446 277.609V257.449H437.64V265.029H437.768C437.952 264.622 438.217 264.209 438.565 263.789C438.92 263.362 439.379 263.008 439.943 262.726C440.514 262.437 441.223 262.292 442.07 262.292C443.172 262.292 444.189 262.581 445.121 263.159C446.053 263.73 446.798 264.593 447.356 265.748C447.913 266.896 448.192 268.337 448.192 270.069C448.192 271.756 447.92 273.18 447.375 274.341C446.837 275.496 446.102 276.372 445.17 276.97C444.245 277.56 443.208 277.855 442.06 277.855C441.246 277.855 440.554 277.721 439.983 277.452C439.418 277.183 438.956 276.845 438.595 276.438C438.234 276.025 437.958 275.608 437.768 275.188H437.581V277.609H433.446ZM437.551 270.049C437.551 270.948 437.676 271.733 437.925 272.402C438.175 273.071 438.536 273.593 439.008 273.967C439.481 274.335 440.055 274.518 440.731 274.518C441.413 274.518 441.991 274.331 442.463 273.957C442.936 273.577 443.293 273.052 443.536 272.382C443.786 271.706 443.91 270.929 443.91 270.049C443.91 269.177 443.789 268.409 443.546 267.746C443.303 267.083 442.946 266.565 442.473 266.191C442.001 265.817 441.42 265.63 440.731 265.63C440.048 265.63 439.471 265.81 438.998 266.171C438.532 266.532 438.175 267.044 437.925 267.707C437.676 268.369 437.551 269.15 437.551 270.049ZM455.184 257.449V277.609H450.99V257.449H455.184ZM462.855 277.895C461.89 277.895 461.03 277.728 460.276 277.393C459.521 277.052 458.924 276.55 458.484 275.887C458.051 275.217 457.834 274.384 457.834 273.386C457.834 272.546 457.988 271.841 458.297 271.27C458.605 270.699 459.025 270.24 459.557 269.892C460.088 269.544 460.692 269.282 461.368 269.104C462.051 268.927 462.766 268.802 463.514 268.73C464.393 268.638 465.102 268.553 465.64 268.474C466.178 268.389 466.569 268.264 466.812 268.1C467.055 267.936 467.176 267.693 467.176 267.372V267.313C467.176 266.689 466.979 266.207 466.585 265.866C466.198 265.525 465.647 265.354 464.932 265.354C464.177 265.354 463.576 265.521 463.13 265.856C462.684 266.184 462.389 266.597 462.244 267.096L458.366 266.781C458.563 265.862 458.95 265.068 459.527 264.399C460.105 263.723 460.85 263.205 461.762 262.844C462.681 262.476 463.744 262.292 464.951 262.292C465.791 262.292 466.595 262.391 467.363 262.588C468.137 262.785 468.823 263.09 469.42 263.503C470.024 263.917 470.5 264.448 470.848 265.098C471.196 265.741 471.369 266.512 471.369 267.411V277.609H467.393V275.513H467.274C467.032 275.985 466.707 276.402 466.3 276.763C465.893 277.117 465.404 277.396 464.833 277.6C464.262 277.796 463.603 277.895 462.855 277.895ZM464.056 275.001C464.672 275.001 465.217 274.879 465.69 274.637C466.162 274.387 466.533 274.052 466.802 273.632C467.071 273.212 467.206 272.737 467.206 272.205V270.601C467.074 270.686 466.894 270.765 466.664 270.837C466.441 270.902 466.188 270.965 465.906 271.024C465.624 271.076 465.342 271.126 465.06 271.172C464.777 271.211 464.521 271.247 464.292 271.28C463.8 271.352 463.37 271.467 463.002 271.624C462.635 271.782 462.349 271.995 462.146 272.264C461.942 272.527 461.841 272.855 461.841 273.249C461.841 273.82 462.047 274.256 462.461 274.558C462.881 274.853 463.412 275.001 464.056 275.001ZM474.623 277.609V262.489H478.619V265.157H478.797C479.112 264.271 479.637 263.572 480.372 263.06C481.107 262.548 481.986 262.292 483.01 262.292C484.047 262.292 484.929 262.552 485.658 263.07C486.386 263.582 486.872 264.278 487.114 265.157H487.272C487.58 264.291 488.138 263.598 488.945 263.08C489.759 262.555 490.721 262.292 491.83 262.292C493.241 262.292 494.386 262.742 495.265 263.641C496.151 264.534 496.594 265.8 496.594 267.441V277.609H492.41V268.268C492.41 267.428 492.187 266.798 491.741 266.378C491.295 265.958 490.737 265.748 490.068 265.748C489.306 265.748 488.712 265.99 488.286 266.476C487.859 266.955 487.646 267.588 487.646 268.376V277.609H483.581V268.179C483.581 267.437 483.367 266.847 482.941 266.407C482.521 265.967 481.966 265.748 481.277 265.748C480.811 265.748 480.391 265.866 480.017 266.102C479.65 266.332 479.358 266.657 479.141 267.077C478.924 267.49 478.816 267.976 478.816 268.533V277.609H474.623ZM499.906 277.609V262.489H504.1V277.609H499.906ZM502.013 260.54C501.39 260.54 500.855 260.334 500.409 259.92C499.969 259.5 499.749 258.998 499.749 258.414C499.749 257.837 499.969 257.341 500.409 256.928C500.855 256.508 501.39 256.298 502.013 256.298C502.636 256.298 503.168 256.508 503.608 256.928C504.054 257.341 504.277 257.837 504.277 258.414C504.277 258.998 504.054 259.5 503.608 259.92C503.168 260.334 502.636 260.54 502.013 260.54ZM511.653 268.868V277.609H507.459V262.489H511.456V265.157H511.633C511.968 264.278 512.529 263.582 513.316 263.07C514.104 262.552 515.058 262.292 516.181 262.292C517.231 262.292 518.146 262.522 518.927 262.982C519.708 263.441 520.315 264.097 520.748 264.95C521.181 265.797 521.398 266.807 521.398 267.982V277.609H517.204V268.73C517.211 267.805 516.975 267.083 516.496 266.565C516.017 266.04 515.357 265.777 514.517 265.777C513.953 265.777 513.454 265.899 513.021 266.141C512.594 266.384 512.26 266.739 512.017 267.205C511.78 267.664 511.659 268.218 511.653 268.868ZM531.515 283.594C530.156 283.594 528.991 283.407 528.02 283.033C527.056 282.666 526.288 282.164 525.717 281.527C525.146 280.891 524.775 280.175 524.604 279.381L528.483 278.86C528.601 279.161 528.788 279.444 529.044 279.706C529.3 279.969 529.638 280.179 530.058 280.336C530.484 280.5 531.003 280.582 531.613 280.582C532.525 280.582 533.277 280.359 533.867 279.913C534.465 279.473 534.763 278.735 534.763 277.698V274.932H534.586C534.402 275.352 534.127 275.749 533.759 276.123C533.392 276.497 532.919 276.802 532.342 277.038C531.764 277.275 531.075 277.393 530.274 277.393C529.139 277.393 528.106 277.13 527.174 276.605C526.248 276.074 525.51 275.263 524.959 274.174C524.414 273.078 524.142 271.693 524.142 270.02C524.142 268.307 524.421 266.876 524.978 265.728C525.536 264.58 526.278 263.72 527.203 263.149C528.135 262.578 529.156 262.292 530.265 262.292C531.111 262.292 531.82 262.437 532.391 262.726C532.962 263.008 533.421 263.362 533.769 263.789C534.123 264.209 534.396 264.622 534.586 265.029H534.743V262.489H538.907V277.757C538.907 279.043 538.592 280.12 537.962 280.986C537.332 281.852 536.46 282.502 535.344 282.935C534.235 283.375 532.958 283.594 531.515 283.594ZM531.603 274.243C532.279 274.243 532.85 274.075 533.316 273.741C533.789 273.4 534.15 272.914 534.399 272.284C534.655 271.647 534.783 270.886 534.783 270C534.783 269.114 534.658 268.346 534.409 267.697C534.159 267.04 533.798 266.532 533.326 266.171C532.853 265.81 532.279 265.63 531.603 265.63C530.914 265.63 530.333 265.817 529.861 266.191C529.388 266.558 529.031 267.07 528.788 267.726C528.545 268.382 528.424 269.14 528.424 270C528.424 270.873 528.545 271.628 528.788 272.264C529.037 272.894 529.395 273.383 529.861 273.731C530.333 274.072 530.914 274.243 531.603 274.243Z" fill="#545454"/>
<rect x="317.069" y="339.053" width="243.542" height="94.37" rx="9.50401" fill="#C1E0FD"/>
<path d="M341.383 396.613H334.236V376.453H341.442C343.47 376.453 345.215 376.857 346.679 377.664C348.142 378.465 349.268 379.616 350.055 381.119C350.849 382.622 351.246 384.42 351.246 386.514C351.246 388.614 350.849 390.418 350.055 391.928C349.268 393.437 348.136 394.595 346.659 395.402C345.189 396.21 343.43 396.613 341.383 396.613ZM338.499 392.961H341.206C342.466 392.961 343.525 392.738 344.385 392.292C345.251 391.839 345.901 391.14 346.334 390.195C346.774 389.244 346.994 388.016 346.994 386.514C346.994 385.024 346.774 383.807 346.334 382.862C345.901 381.917 345.255 381.221 344.395 380.775C343.535 380.328 342.475 380.105 341.215 380.105H338.499V392.961ZM354.325 396.613V381.493H358.518V396.613H354.325ZM356.431 379.544C355.808 379.544 355.273 379.337 354.827 378.924C354.387 378.504 354.167 378.002 354.167 377.418C354.167 376.84 354.387 376.345 354.827 375.932C355.273 375.512 355.808 375.302 356.431 375.302C357.055 375.302 357.586 375.512 358.026 375.932C358.472 376.345 358.696 376.84 358.696 377.418C358.696 378.002 358.472 378.504 358.026 378.924C357.586 379.337 357.055 379.544 356.431 379.544ZM374.458 385.805L370.619 386.041C370.553 385.713 370.412 385.418 370.195 385.155C369.979 384.886 369.693 384.673 369.339 384.515C368.991 384.351 368.575 384.269 368.089 384.269C367.439 384.269 366.891 384.407 366.445 384.683C365.999 384.952 365.776 385.313 365.776 385.765C365.776 386.126 365.92 386.432 366.209 386.681C366.498 386.93 366.993 387.13 367.695 387.281L370.432 387.833C371.902 388.135 372.998 388.62 373.72 389.29C374.441 389.959 374.802 390.838 374.802 391.928C374.802 392.919 374.51 393.788 373.926 394.536C373.349 395.284 372.555 395.868 371.544 396.288C370.54 396.702 369.382 396.909 368.069 396.909C366.068 396.909 364.473 396.492 363.285 395.658C362.104 394.818 361.412 393.677 361.208 392.233L365.333 392.016C365.457 392.627 365.759 393.092 366.238 393.414C366.717 393.729 367.331 393.887 368.079 393.887C368.814 393.887 369.405 393.745 369.851 393.463C370.304 393.175 370.533 392.804 370.54 392.351C370.533 391.97 370.373 391.659 370.058 391.416C369.743 391.166 369.257 390.976 368.601 390.845L365.982 390.323C364.506 390.028 363.407 389.516 362.685 388.787C361.969 388.059 361.612 387.13 361.612 386.002C361.612 385.03 361.874 384.194 362.399 383.492C362.931 382.789 363.676 382.248 364.634 381.867C365.598 381.487 366.727 381.296 368.02 381.296C369.93 381.296 371.433 381.7 372.528 382.507C373.631 383.314 374.274 384.414 374.458 385.805ZM377.443 396.613V381.493H381.44V384.161H381.617C381.932 383.275 382.457 382.576 383.192 382.064C383.927 381.552 384.806 381.296 385.83 381.296C386.867 381.296 387.749 381.556 388.478 382.074C389.206 382.586 389.692 383.282 389.935 384.161H390.092C390.401 383.295 390.958 382.602 391.766 382.084C392.579 381.559 393.541 381.296 394.65 381.296C396.061 381.296 397.206 381.746 398.085 382.645C398.971 383.537 399.414 384.804 399.414 386.445V396.613H395.231V387.272C395.231 386.432 395.007 385.802 394.561 385.382C394.115 384.962 393.557 384.752 392.888 384.752C392.127 384.752 391.533 384.994 391.106 385.48C390.68 385.959 390.466 386.592 390.466 387.38V396.613H386.401V387.183C386.401 386.441 386.187 385.851 385.761 385.411C385.341 384.971 384.786 384.752 384.097 384.752C383.631 384.752 383.211 384.87 382.837 385.106C382.47 385.336 382.178 385.66 381.961 386.08C381.745 386.494 381.636 386.98 381.636 387.537V396.613H377.443ZM402.727 396.613V381.493H406.92V396.613H402.727ZM404.833 379.544C404.21 379.544 403.675 379.337 403.229 378.924C402.789 378.504 402.569 378.002 402.569 377.418C402.569 376.84 402.789 376.345 403.229 375.932C403.675 375.512 404.21 375.302 404.833 375.302C405.457 375.302 405.988 375.512 406.428 375.932C406.874 376.345 407.097 376.84 407.097 377.418C407.097 378.002 406.874 378.504 406.428 378.924C405.988 379.337 405.457 379.544 404.833 379.544ZM422.86 385.805L419.02 386.041C418.955 385.713 418.814 385.418 418.597 385.155C418.381 384.886 418.095 384.673 417.741 384.515C417.393 384.351 416.976 384.269 416.491 384.269C415.841 384.269 415.293 384.407 414.847 384.683C414.4 384.952 414.177 385.313 414.177 385.765C414.177 386.126 414.322 386.432 414.61 386.681C414.899 386.93 415.395 387.13 416.097 387.281L418.833 387.833C420.303 388.135 421.399 388.62 422.121 389.29C422.843 389.959 423.204 390.838 423.204 391.928C423.204 392.919 422.912 393.788 422.328 394.536C421.75 395.284 420.956 395.868 419.946 396.288C418.942 396.702 417.783 396.909 416.471 396.909C414.469 396.909 412.875 396.492 411.687 395.658C410.506 394.818 409.813 393.677 409.61 392.233L413.734 392.016C413.859 392.627 414.161 393.092 414.64 393.414C415.119 393.729 415.733 393.887 416.481 393.887C417.216 393.887 417.806 393.745 418.253 393.463C418.705 393.175 418.935 392.804 418.942 392.351C418.935 391.97 418.774 391.659 418.459 391.416C418.144 391.166 417.659 390.976 417.003 390.845L414.384 390.323C412.908 390.028 411.808 389.516 411.086 388.787C410.371 388.059 410.013 387.13 410.013 386.002C410.013 385.03 410.276 384.194 410.801 383.492C411.333 382.789 412.077 382.248 413.035 381.867C414 381.487 415.129 381.296 416.422 381.296C418.331 381.296 419.834 381.7 420.93 382.507C422.033 383.314 422.676 384.414 422.86 385.805ZM438.425 385.805L434.586 386.041C434.52 385.713 434.379 385.418 434.163 385.155C433.946 384.886 433.661 384.673 433.306 384.515C432.958 384.351 432.542 384.269 432.056 384.269C431.406 384.269 430.858 384.407 430.412 384.683C429.966 384.952 429.743 385.313 429.743 385.765C429.743 386.126 429.887 386.432 430.176 386.681C430.465 386.93 430.96 387.13 431.662 387.281L434.399 387.833C435.869 388.135 436.965 388.62 437.687 389.29C438.409 389.959 438.77 390.838 438.77 391.928C438.77 392.919 438.477 393.788 437.893 394.536C437.316 395.284 436.522 395.868 435.511 396.288C434.507 396.702 433.349 396.909 432.036 396.909C430.035 396.909 428.44 396.492 427.252 395.658C426.071 394.818 425.379 393.677 425.175 392.233L429.3 392.016C429.425 392.627 429.726 393.092 430.205 393.414C430.685 393.729 431.298 393.887 432.046 393.887C432.781 393.887 433.372 393.745 433.818 393.463C434.271 393.175 434.501 392.804 434.507 392.351C434.501 391.97 434.34 391.659 434.025 391.416C433.71 391.166 433.224 390.976 432.568 390.845L429.95 390.323C428.473 390.028 427.374 389.516 426.652 388.787C425.937 388.059 425.579 387.13 425.579 386.002C425.579 385.03 425.841 384.194 426.366 383.492C426.898 382.789 427.643 382.248 428.601 381.867C429.566 381.487 430.694 381.296 431.987 381.296C433.897 381.296 435.4 381.7 436.496 382.507C437.598 383.314 438.241 384.414 438.425 385.805ZM441.41 396.613V381.493H445.604V396.613H441.41ZM443.517 379.544C442.893 379.544 442.358 379.337 441.912 378.924C441.472 378.504 441.253 378.002 441.253 377.418C441.253 376.84 441.472 376.345 441.912 375.932C442.358 375.512 442.893 375.302 443.517 375.302C444.14 375.302 444.672 375.512 445.111 375.932C445.558 376.345 445.781 376.84 445.781 377.418C445.781 378.002 445.558 378.504 445.111 378.924C444.672 379.337 444.14 379.544 443.517 379.544ZM463.059 381.493L457.773 396.613H453.048L447.762 381.493H452.191L455.332 392.312H455.489L458.619 381.493H463.059ZM471.608 396.909C470.053 396.909 468.714 396.594 467.592 395.964C466.476 395.327 465.617 394.428 465.013 393.266C464.409 392.098 464.107 390.717 464.107 389.122C464.107 387.567 464.409 386.202 465.013 385.027C465.617 383.852 466.467 382.937 467.562 382.281C468.665 381.625 469.958 381.296 471.441 381.296C472.438 381.296 473.367 381.457 474.227 381.779C475.093 382.094 475.848 382.57 476.491 383.206C477.14 383.843 477.646 384.643 478.007 385.608C478.368 386.566 478.548 387.688 478.548 388.975V390.126H465.781V387.527H474.601C474.601 386.924 474.47 386.389 474.207 385.923C473.945 385.457 473.58 385.093 473.114 384.83C472.655 384.561 472.12 384.427 471.51 384.427C470.873 384.427 470.309 384.574 469.817 384.87C469.331 385.158 468.95 385.549 468.675 386.041C468.399 386.527 468.258 387.068 468.252 387.665V390.136C468.252 390.884 468.389 391.531 468.665 392.075C468.947 392.62 469.344 393.04 469.856 393.335C470.368 393.631 470.975 393.778 471.677 393.778C472.143 393.778 472.57 393.713 472.957 393.581C473.344 393.45 473.675 393.253 473.951 392.991C474.227 392.728 474.437 392.407 474.581 392.026L478.46 392.282C478.263 393.214 477.859 394.028 477.249 394.723C476.645 395.412 475.864 395.95 474.906 396.338C473.954 396.718 472.855 396.909 471.608 396.909ZM485.478 387.872V396.613H481.285V381.493H485.281V384.161H485.458C485.793 383.282 486.354 382.586 487.142 382.074C487.929 381.556 488.884 381.296 490.006 381.296C491.056 381.296 491.972 381.526 492.753 381.985C493.534 382.445 494.141 383.101 494.574 383.954C495.007 384.801 495.223 385.811 495.223 386.986V396.613H491.03V387.734C491.037 386.809 490.8 386.087 490.321 385.569C489.842 385.044 489.183 384.781 488.343 384.781C487.778 384.781 487.28 384.902 486.846 385.145C486.42 385.388 486.085 385.742 485.842 386.208C485.606 386.668 485.485 387.222 485.478 387.872ZM505.419 396.909C503.864 396.909 502.525 396.594 501.403 395.964C500.287 395.327 499.428 394.428 498.824 393.266C498.22 392.098 497.918 390.717 497.918 389.122C497.918 387.567 498.22 386.202 498.824 385.027C499.428 383.852 500.277 382.937 501.373 382.281C502.476 381.625 503.769 381.296 505.252 381.296C506.249 381.296 507.178 381.457 508.038 381.779C508.904 382.094 509.658 382.57 510.302 383.206C510.951 383.843 511.457 384.643 511.818 385.608C512.178 386.566 512.359 387.688 512.359 388.975V390.126H499.592V387.527H508.412C508.412 386.924 508.28 386.389 508.018 385.923C507.755 385.457 507.391 385.093 506.925 384.83C506.466 384.561 505.931 384.427 505.321 384.427C504.684 384.427 504.12 384.574 503.628 384.87C503.142 385.158 502.761 385.549 502.486 386.041C502.21 386.527 502.069 387.068 502.062 387.665V390.136C502.062 390.884 502.2 391.531 502.476 392.075C502.758 392.62 503.155 393.04 503.667 393.335C504.179 393.631 504.786 393.778 505.488 393.778C505.954 393.778 506.38 393.713 506.768 393.581C507.155 393.45 507.486 393.253 507.762 392.991C508.038 392.728 508.248 392.407 508.392 392.026L512.27 392.282C512.073 393.214 511.67 394.028 511.06 394.723C510.456 395.412 509.675 395.95 508.717 396.338C507.765 396.718 506.666 396.909 505.419 396.909ZM527.676 385.805L523.837 386.041C523.771 385.713 523.63 385.418 523.413 385.155C523.197 384.886 522.911 384.673 522.557 384.515C522.209 384.351 521.793 384.269 521.307 384.269C520.657 384.269 520.109 384.407 519.663 384.683C519.217 384.952 518.994 385.313 518.994 385.765C518.994 386.126 519.138 386.432 519.427 386.681C519.715 386.93 520.211 387.13 520.913 387.281L523.65 387.833C525.12 388.135 526.216 388.62 526.938 389.29C527.659 389.959 528.02 390.838 528.02 391.928C528.02 392.919 527.728 393.788 527.144 394.536C526.567 395.284 525.773 395.868 524.762 396.288C523.758 396.702 522.6 396.909 521.287 396.909C519.286 396.909 517.691 396.492 516.503 395.658C515.322 394.818 514.63 393.677 514.426 392.233L518.551 392.016C518.675 392.627 518.977 393.092 519.456 393.414C519.935 393.729 520.549 393.887 521.297 393.887C522.032 393.887 522.623 393.745 523.069 393.463C523.522 393.175 523.751 392.804 523.758 392.351C523.751 391.97 523.591 391.659 523.276 391.416C522.961 391.166 522.475 390.976 521.819 390.845L519.2 390.323C517.724 390.028 516.625 389.516 515.903 388.787C515.187 388.059 514.83 387.13 514.83 386.002C514.83 385.03 515.092 384.194 515.617 383.492C516.149 382.789 516.894 382.248 517.852 381.867C518.816 381.487 519.945 381.296 521.238 381.296C523.148 381.296 524.65 381.7 525.746 382.507C526.849 383.314 527.492 384.414 527.676 385.805ZM543.241 385.805L539.402 386.041C539.337 385.713 539.195 385.418 538.979 385.155C538.762 384.886 538.477 384.673 538.122 384.515C537.775 384.351 537.358 384.269 536.872 384.269C536.223 384.269 535.675 384.407 535.228 384.683C534.782 384.952 534.559 385.313 534.559 385.765C534.559 386.126 534.703 386.432 534.992 386.681C535.281 386.93 535.776 387.13 536.479 387.281L539.215 387.833C540.685 388.135 541.781 388.62 542.503 389.29C543.225 389.959 543.586 390.838 543.586 391.928C543.586 392.919 543.294 393.788 542.71 394.536C542.132 395.284 541.338 395.868 540.327 396.288C539.323 396.702 538.165 396.909 536.853 396.909C534.851 396.909 533.256 396.492 532.069 395.658C530.887 394.818 530.195 393.677 529.992 392.233L534.116 392.016C534.241 392.627 534.543 393.092 535.022 393.414C535.501 393.729 536.114 393.887 536.862 393.887C537.597 393.887 538.188 393.745 538.634 393.463C539.087 393.175 539.317 392.804 539.323 392.351C539.317 391.97 539.156 391.659 538.841 391.416C538.526 391.166 538.04 390.976 537.384 390.845L534.766 390.323C533.289 390.028 532.19 389.516 531.468 388.787C530.753 388.059 530.395 387.13 530.395 386.002C530.395 385.03 530.658 384.194 531.183 383.492C531.714 382.789 532.459 382.248 533.417 381.867C534.382 381.487 535.511 381.296 536.803 381.296C538.713 381.296 540.216 381.7 541.312 382.507C542.414 383.314 543.057 384.414 543.241 385.805Z" fill="#545454"/>
<rect x="317.069" y="458.059" width="243.542" height="94.37" rx="9.50401" fill="#C1E0FD"/>
<path d="M379.882 484.894H375.571C375.492 484.336 375.331 483.841 375.088 483.408C374.846 482.968 374.534 482.594 374.153 482.285C373.773 481.977 373.333 481.741 372.834 481.577C372.342 481.413 371.807 481.331 371.23 481.331C370.186 481.331 369.277 481.59 368.503 482.108C367.729 482.62 367.128 483.368 366.702 484.353C366.275 485.33 366.062 486.518 366.062 487.916C366.062 489.353 366.275 490.561 366.702 491.539C367.135 492.516 367.738 493.255 368.513 493.753C369.287 494.252 370.183 494.502 371.2 494.502C371.771 494.502 372.299 494.426 372.785 494.275C373.277 494.124 373.714 493.904 374.094 493.616C374.475 493.32 374.79 492.963 375.039 492.543C375.295 492.123 375.472 491.644 375.571 491.105L379.882 491.125C379.771 492.05 379.492 492.943 379.046 493.803C378.606 494.656 378.012 495.42 377.264 496.096C376.522 496.766 375.636 497.297 374.606 497.691C373.582 498.078 372.424 498.272 371.131 498.272C369.333 498.272 367.725 497.865 366.308 497.051C364.897 496.237 363.781 495.059 362.961 493.517C362.147 491.975 361.74 490.108 361.74 487.916C361.74 485.718 362.154 483.847 362.981 482.305C363.808 480.763 364.93 479.588 366.347 478.781C367.765 477.967 369.359 477.56 371.131 477.56C372.299 477.56 373.382 477.725 374.38 478.053C375.384 478.381 376.273 478.86 377.047 479.49C377.822 480.113 378.452 480.878 378.937 481.783C379.43 482.689 379.745 483.726 379.882 484.894ZM382.86 497.996V482.876H386.926V485.514H387.083C387.359 484.576 387.821 483.867 388.471 483.388C389.121 482.902 389.869 482.66 390.715 482.66C390.925 482.66 391.152 482.673 391.395 482.699C391.637 482.725 391.851 482.761 392.035 482.807V486.528C391.838 486.469 391.565 486.417 391.217 486.371C390.87 486.325 390.551 486.302 390.263 486.302C389.646 486.302 389.095 486.436 388.609 486.705C388.13 486.968 387.749 487.335 387.467 487.808C387.191 488.28 387.054 488.825 387.054 489.442V497.996H382.86ZM394.203 497.996V482.876H398.396V497.996H394.203ZM396.309 480.927C395.686 480.927 395.151 480.72 394.705 480.307C394.265 479.887 394.045 479.385 394.045 478.801C394.045 478.223 394.265 477.728 394.705 477.314C395.151 476.894 395.686 476.684 396.309 476.684C396.933 476.684 397.464 476.894 397.904 477.314C398.35 477.728 398.573 478.223 398.573 478.801C398.573 479.385 398.35 479.887 397.904 480.307C397.464 480.72 396.933 480.927 396.309 480.927ZM409.798 482.876V486.026H400.692V482.876H409.798ZM402.759 479.254H406.953V493.35C406.953 493.737 407.012 494.039 407.13 494.255C407.248 494.465 407.412 494.613 407.622 494.698C407.839 494.784 408.088 494.826 408.37 494.826C408.567 494.826 408.764 494.81 408.961 494.777C409.158 494.738 409.309 494.708 409.414 494.689L410.073 497.809C409.863 497.875 409.568 497.95 409.187 498.035C408.807 498.127 408.344 498.183 407.799 498.203C406.789 498.242 405.903 498.108 405.141 497.799C404.387 497.491 403.799 497.012 403.379 496.362C402.959 495.712 402.753 494.892 402.759 493.901V479.254ZM412.529 497.996V482.876H416.723V497.996H412.529ZM414.636 480.927C414.012 480.927 413.477 480.72 413.031 480.307C412.592 479.887 412.372 479.385 412.372 478.801C412.372 478.223 412.592 477.728 413.031 477.314C413.477 476.894 414.012 476.684 414.636 476.684C415.259 476.684 415.791 476.894 416.23 477.314C416.677 477.728 416.9 478.223 416.9 478.801C416.9 479.385 416.677 479.887 416.23 480.307C415.791 480.72 415.259 480.927 414.636 480.927ZM426.913 498.291C425.365 498.291 424.032 497.963 422.917 497.307C421.808 496.644 420.955 495.725 420.357 494.551C419.767 493.376 419.472 492.024 419.472 490.495C419.472 488.946 419.77 487.588 420.367 486.42C420.971 485.245 421.827 484.33 422.937 483.673C424.046 483.011 425.365 482.679 426.894 482.679C428.213 482.679 429.368 482.919 430.359 483.398C431.35 483.877 432.134 484.55 432.711 485.416C433.289 486.282 433.607 487.299 433.666 488.467H429.709C429.597 487.713 429.302 487.106 428.823 486.646C428.351 486.18 427.73 485.947 426.963 485.947C426.313 485.947 425.745 486.125 425.26 486.479C424.781 486.827 424.407 487.335 424.137 488.005C423.868 488.674 423.734 489.485 423.734 490.436C423.734 491.401 423.865 492.221 424.128 492.897C424.397 493.573 424.774 494.088 425.26 494.442C425.745 494.797 426.313 494.974 426.963 494.974C427.442 494.974 427.872 494.876 428.252 494.679C428.639 494.482 428.958 494.196 429.207 493.822C429.463 493.442 429.63 492.986 429.709 492.454H433.666C433.601 493.609 433.286 494.626 432.721 495.506C432.163 496.378 431.392 497.061 430.408 497.553C429.424 498.045 428.259 498.291 426.913 498.291ZM436.351 497.996V482.876H440.545V497.996H436.351ZM438.458 480.927C437.834 480.927 437.299 480.72 436.853 480.307C436.413 479.887 436.194 479.385 436.194 478.801C436.194 478.223 436.413 477.728 436.853 477.314C437.299 476.894 437.834 476.684 438.458 476.684C439.081 476.684 439.613 476.894 440.052 477.314C440.499 477.728 440.722 478.223 440.722 478.801C440.722 479.385 440.499 479.887 440.052 480.307C439.613 480.72 439.081 480.927 438.458 480.927ZM456.484 487.188L452.645 487.424C452.579 487.096 452.438 486.8 452.222 486.538C452.005 486.269 451.72 486.056 451.365 485.898C451.017 485.734 450.601 485.652 450.115 485.652C449.465 485.652 448.917 485.79 448.471 486.065C448.025 486.335 447.802 486.695 447.802 487.148C447.802 487.509 447.946 487.814 448.235 488.064C448.524 488.313 449.019 488.513 449.721 488.664L452.458 489.215C453.928 489.517 455.024 490.003 455.746 490.672C456.468 491.342 456.829 492.221 456.829 493.31C456.829 494.301 456.537 495.171 455.952 495.919C455.375 496.667 454.581 497.251 453.57 497.671C452.566 498.085 451.408 498.291 450.095 498.291C448.094 498.291 446.499 497.875 445.311 497.041C444.13 496.201 443.438 495.059 443.234 493.616L447.359 493.399C447.484 494.009 447.785 494.475 448.264 494.797C448.744 495.112 449.357 495.269 450.105 495.269C450.84 495.269 451.431 495.128 451.877 494.846C452.33 494.557 452.56 494.187 452.566 493.734C452.56 493.353 452.399 493.041 452.084 492.799C451.769 492.549 451.283 492.359 450.627 492.228L448.009 491.706C446.532 491.411 445.433 490.899 444.711 490.17C443.996 489.442 443.638 488.513 443.638 487.385C443.638 486.413 443.9 485.577 444.425 484.874C444.957 484.172 445.702 483.631 446.66 483.25C447.625 482.87 448.753 482.679 450.046 482.679C451.956 482.679 453.459 483.083 454.555 483.89C455.657 484.697 456.3 485.796 456.484 487.188ZM459.469 497.996V482.876H463.466V485.544H463.643C463.958 484.658 464.483 483.959 465.218 483.447C465.953 482.935 466.832 482.679 467.856 482.679C468.893 482.679 469.776 482.938 470.504 483.457C471.232 483.969 471.718 484.664 471.961 485.544H472.118C472.427 484.677 472.985 483.985 473.792 483.467C474.606 482.942 475.567 482.679 476.676 482.679C478.087 482.679 479.232 483.129 480.111 484.028C480.997 484.92 481.44 486.187 481.44 487.827V497.996H477.257V488.654C477.257 487.814 477.034 487.184 476.587 486.764C476.141 486.344 475.583 486.134 474.914 486.134C474.153 486.134 473.559 486.377 473.132 486.863C472.706 487.342 472.492 487.975 472.492 488.763V497.996H468.427V488.566C468.427 487.824 468.214 487.234 467.787 486.794C467.367 486.354 466.813 486.134 466.124 486.134C465.658 486.134 465.238 486.252 464.864 486.489C464.496 486.718 464.204 487.043 463.987 487.463C463.771 487.877 463.663 488.362 463.663 488.92V497.996H459.469ZM498 498.291C496.471 498.291 495.149 497.967 494.033 497.317C492.924 496.661 492.068 495.748 491.464 494.58C490.86 493.406 490.558 492.044 490.558 490.495C490.558 488.933 490.86 487.568 491.464 486.4C492.068 485.225 492.924 484.313 494.033 483.664C495.149 483.007 496.471 482.679 498 482.679C499.529 482.679 500.848 483.007 501.957 483.664C503.073 484.313 503.933 485.225 504.536 486.4C505.14 487.568 505.442 488.933 505.442 490.495C505.442 492.044 505.14 493.406 504.536 494.58C503.933 495.748 503.073 496.661 501.957 497.317C500.848 497.967 499.529 498.291 498 498.291ZM498.02 495.043C498.715 495.043 499.296 494.846 499.762 494.452C500.228 494.052 500.579 493.507 500.815 492.818C501.058 492.129 501.18 491.345 501.18 490.466C501.18 489.586 501.058 488.802 500.815 488.113C500.579 487.424 500.228 486.879 499.762 486.479C499.296 486.079 498.715 485.878 498.02 485.878C497.318 485.878 496.727 486.079 496.248 486.479C495.775 486.879 495.418 487.424 495.175 488.113C494.939 488.802 494.82 489.586 494.82 490.466C494.82 491.345 494.939 492.129 495.175 492.818C495.418 493.507 495.775 494.052 496.248 494.452C496.727 494.846 497.318 495.043 498.02 495.043ZM516.3 482.876V486.026H506.968V482.876H516.3ZM509.104 497.996V481.783C509.104 480.687 509.317 479.779 509.744 479.057C510.177 478.335 510.767 477.793 511.515 477.432C512.264 477.072 513.113 476.891 514.065 476.891C514.708 476.891 515.295 476.94 515.827 477.039C516.365 477.137 516.765 477.226 517.028 477.305L516.28 480.455C516.116 480.402 515.912 480.353 515.67 480.307C515.433 480.261 515.19 480.238 514.941 480.238C514.324 480.238 513.894 480.382 513.652 480.671C513.409 480.953 513.287 481.35 513.287 481.862V497.996H509.104ZM385.97 516.876V520.026H376.638V516.876H385.97ZM378.774 531.996V515.783C378.774 514.687 378.987 513.779 379.414 513.057C379.847 512.335 380.437 511.793 381.185 511.432C381.934 511.072 382.783 510.891 383.735 510.891C384.378 510.891 384.965 510.94 385.497 511.039C386.035 511.137 386.435 511.226 386.698 511.305L385.95 514.455C385.786 514.402 385.582 514.353 385.34 514.307C385.103 514.261 384.86 514.238 384.611 514.238C383.994 514.238 383.564 514.382 383.322 514.671C383.079 514.953 382.957 515.35 382.957 515.862V531.996H378.774ZM394.881 532.291C393.325 532.291 391.987 531.976 390.864 531.346C389.749 530.71 388.889 529.811 388.285 528.649C387.682 527.481 387.38 526.1 387.38 524.505C387.38 522.95 387.682 521.585 388.285 520.41C388.889 519.235 389.739 518.32 390.835 517.664C391.937 517.007 393.23 516.679 394.713 516.679C395.711 516.679 396.639 516.84 397.499 517.162C398.365 517.477 399.12 517.952 399.763 518.589C400.413 519.225 400.918 520.026 401.279 520.991C401.64 521.949 401.82 523.071 401.82 524.357V525.509H389.053V522.91H397.873C397.873 522.307 397.742 521.772 397.479 521.306C397.217 520.84 396.853 520.476 396.387 520.213C395.927 519.944 395.392 519.81 394.782 519.81C394.146 519.81 393.581 519.957 393.089 520.252C392.603 520.541 392.223 520.932 391.947 521.424C391.672 521.91 391.53 522.451 391.524 523.048V525.519C391.524 526.267 391.662 526.913 391.937 527.458C392.219 528.003 392.617 528.423 393.128 528.718C393.64 529.013 394.247 529.161 394.949 529.161C395.415 529.161 395.842 529.095 396.229 528.964C396.616 528.833 396.948 528.636 397.223 528.374C397.499 528.111 397.709 527.79 397.853 527.409L401.732 527.665C401.535 528.597 401.131 529.41 400.521 530.106C399.917 530.795 399.136 531.333 398.178 531.72C397.227 532.101 396.127 532.291 394.881 532.291ZM404.557 531.996V516.876H408.554V519.544H408.731C409.046 518.658 409.571 517.959 410.306 517.447C411.041 516.935 411.92 516.679 412.944 516.679C413.981 516.679 414.863 516.938 415.592 517.457C416.32 517.969 416.806 518.664 417.049 519.544H417.206C417.515 518.677 418.072 517.985 418.88 517.467C419.693 516.942 420.655 516.679 421.764 516.679C423.175 516.679 424.32 517.129 425.199 518.028C426.085 518.92 426.528 520.187 426.528 521.827V531.996H422.345V522.654C422.345 521.814 422.122 521.184 421.675 520.764C421.229 520.344 420.671 520.134 420.002 520.134C419.241 520.134 418.647 520.377 418.22 520.863C417.794 521.342 417.58 521.975 417.58 522.763V531.996H413.515V522.566C413.515 521.824 413.302 521.234 412.875 520.794C412.455 520.354 411.9 520.134 411.211 520.134C410.745 520.134 410.325 520.252 409.951 520.489C409.584 520.718 409.292 521.043 409.075 521.463C408.859 521.877 408.75 522.362 408.75 522.92V531.996H404.557ZM429.841 531.996V516.876H434.034V531.996H429.841ZM431.947 514.927C431.324 514.927 430.789 514.72 430.343 514.307C429.903 513.887 429.683 513.385 429.683 512.801C429.683 512.223 429.903 511.728 430.343 511.314C430.789 510.894 431.324 510.684 431.947 510.684C432.571 510.684 433.102 510.894 433.542 511.314C433.988 511.728 434.211 512.223 434.211 512.801C434.211 513.385 433.988 513.887 433.542 514.307C433.102 514.72 432.571 514.927 431.947 514.927ZM441.587 523.255V531.996H437.393V516.876H441.39V519.544H441.567C441.902 518.664 442.463 517.969 443.25 517.457C444.038 516.938 444.993 516.679 446.115 516.679C447.165 516.679 448.08 516.909 448.861 517.368C449.642 517.828 450.249 518.484 450.682 519.337C451.115 520.184 451.332 521.194 451.332 522.369V531.996H447.139V523.117C447.145 522.192 446.909 521.47 446.43 520.951C445.951 520.426 445.291 520.164 444.451 520.164C443.887 520.164 443.388 520.285 442.955 520.528C442.528 520.771 442.194 521.125 441.951 521.591C441.715 522.051 441.593 522.605 441.587 523.255ZM454.637 531.996V516.876H458.831V531.996H454.637ZM456.744 514.927C456.12 514.927 455.585 514.72 455.139 514.307C454.699 513.887 454.48 513.385 454.48 512.801C454.48 512.223 454.699 511.728 455.139 511.314C455.585 510.894 456.12 510.684 456.744 510.684C457.367 510.684 457.899 510.894 458.338 511.314C458.785 511.728 459.008 512.223 459.008 512.801C459.008 513.385 458.785 513.887 458.338 514.307C457.899 514.72 457.367 514.927 456.744 514.927ZM474.77 521.188L470.931 521.424C470.865 521.096 470.724 520.8 470.508 520.538C470.291 520.269 470.006 520.056 469.651 519.898C469.303 519.734 468.887 519.652 468.401 519.652C467.751 519.652 467.203 519.79 466.757 520.065C466.311 520.335 466.088 520.695 466.088 521.148C466.088 521.509 466.232 521.814 466.521 522.064C466.81 522.313 467.305 522.513 468.007 522.664L470.744 523.215C472.214 523.517 473.31 524.003 474.032 524.672C474.754 525.342 475.115 526.221 475.115 527.31C475.115 528.301 474.823 529.171 474.238 529.919C473.661 530.667 472.867 531.251 471.856 531.671C470.852 532.085 469.694 532.291 468.381 532.291C466.38 532.291 464.785 531.875 463.597 531.041C462.416 530.201 461.724 529.059 461.52 527.616L465.645 527.399C465.77 528.009 466.071 528.475 466.55 528.797C467.03 529.112 467.643 529.269 468.391 529.269C469.126 529.269 469.717 529.128 470.163 528.846C470.616 528.557 470.846 528.187 470.852 527.734C470.846 527.353 470.685 527.041 470.37 526.799C470.055 526.549 469.569 526.359 468.913 526.228L466.295 525.706C464.818 525.411 463.719 524.899 462.997 524.17C462.282 523.442 461.924 522.513 461.924 521.385C461.924 520.413 462.186 519.577 462.711 518.874C463.243 518.172 463.988 517.631 464.946 517.25C465.911 516.87 467.039 516.679 468.332 516.679C470.242 516.679 471.745 517.083 472.841 517.89C473.943 518.697 474.586 519.796 474.77 521.188ZM477.755 531.996V516.876H481.752V519.544H481.929C482.244 518.658 482.769 517.959 483.504 517.447C484.239 516.935 485.118 516.679 486.142 516.679C487.179 516.679 488.062 516.938 488.79 517.457C489.518 517.969 490.004 518.664 490.247 519.544H490.404C490.713 518.677 491.271 517.985 492.078 517.467C492.892 516.942 493.853 516.679 494.962 516.679C496.373 516.679 497.518 517.129 498.397 518.028C499.283 518.92 499.726 520.187 499.726 521.827V531.996H495.543V522.654C495.543 521.814 495.32 521.184 494.873 520.764C494.427 520.344 493.869 520.134 493.2 520.134C492.439 520.134 491.845 520.377 491.418 520.863C490.992 521.342 490.778 521.975 490.778 522.763V531.996H486.713V522.566C486.713 521.824 486.5 521.234 486.073 520.794C485.653 520.354 485.099 520.134 484.41 520.134C483.944 520.134 483.524 520.252 483.15 520.489C482.782 520.718 482.49 521.043 482.273 521.463C482.057 521.877 481.949 522.362 481.949 522.92V531.996H477.755Z" fill="#545454"/>
<line x1="95.7128" y1="101" x2="95.7128" y2="414" stroke="#C6C6C6" stroke-width="1.4256"/>
<line x1="27.1216" y1="124.621" x2="204.2" y2="124.621" stroke="#C6C6C6" stroke-width="1.4256"/>
<line x1="27.1221" y1="215.061" x2="204.2" y2="215.061" stroke="#C6C6C6" stroke-width="1.4256"/>
<line x1="27.1216" y1="306.93" x2="204.2" y2="306.93" stroke="#C6C6C6" stroke-width="1.4256"/>
<line x1="27.1216" y1="185.867" x2="204.2" y2="185.867" stroke="#C6C6C6" stroke-width="1.4256"/>
<line x1="27.1226" y1="276.307" x2="204.201" y2="276.307" stroke="#C6C6C6" stroke-width="1.4256"/>
<line x1="27.1216" y1="368.178" x2="204.2" y2="368.178" stroke="#C6C6C6" stroke-width="1.4256"/>
<line x1="27.1226" y1="155.246" x2="204.201" y2="155.246" stroke="#C6C6C6" stroke-width="1.4256"/>
<line x1="27.1226" y1="245.684" x2="204.201" y2="245.684" stroke="#C6C6C6" stroke-width="1.4256"/>
<line x1="27.1221" y1="337.555" x2="204.2" y2="337.555" stroke="#C6C6C6" stroke-width="1.4256"/>
<line x1="27.1226" y1="398.801" x2="204.201" y2="398.801" stroke="#C6C6C6" stroke-width="1.4256"/>
<line x1="27.1221" y1="139.934" x2="204.2" y2="139.934" stroke="#C6C6C6" stroke-width="1.4256"/>
<line x1="27.1226" y1="230.373" x2="204.201" y2="230.373" stroke="#C6C6C6" stroke-width="1.4256"/>
<line x1="27.1221" y1="322.242" x2="204.2" y2="322.242" stroke="#C6C6C6" stroke-width="1.4256"/>
<line x1="27.1216" y1="201.18" x2="204.2" y2="201.18" stroke="#C6C6C6" stroke-width="1.4256"/>
<line x1="27.1226" y1="291.619" x2="204.201" y2="291.619" stroke="#C6C6C6" stroke-width="1.4256"/>
<line x1="27.1216" y1="383.49" x2="204.2" y2="383.49" stroke="#C6C6C6" stroke-width="1.4256"/>
<line x1="27.1216" y1="170.557" x2="204.2" y2="170.557" stroke="#C6C6C6" stroke-width="1.4256"/>
<line x1="27.1226" y1="260.996" x2="204.201" y2="260.996" stroke="#C6C6C6" stroke-width="1.4256"/>
<line x1="27.1216" y1="352.867" x2="204.2" y2="352.867" stroke="#C6C6C6" stroke-width="1.4256"/>
<line x1="27.1216" y1="185.869" x2="204.2" y2="185.869" stroke="#C6C6C6" stroke-width="1.4256"/>
<line x1="27.1221" y1="276.309" x2="204.2" y2="276.309" stroke="#C6C6C6" stroke-width="1.4256"/>
<line x1="27.1216" y1="368.18" x2="204.2" y2="368.18" stroke="#C6C6C6" stroke-width="1.4256"/>
<line x1="27.1226" y1="414.229" x2="204.201" y2="414.229" stroke="#C6C6C6" stroke-width="1.4256"/>
<line x1="131.713" y1="101" x2="131.713" y2="414" stroke="#C6C6C6" stroke-width="1.4256"/>
<line x1="168.713" y1="101" x2="168.713" y2="414" stroke="#C6C6C6" stroke-width="1.4256"/>
<path d="M38.5548 102.156H192.768C198.689 102.156 203.488 106.955 203.488 112.876V414.245H27.8354V112.876C27.8354 106.955 32.6346 102.156 38.5548 102.156Z" stroke="#545454" stroke-width="1.4256"/>
<line x1="27.1196" y1="493.492" x2="204.198" y2="493.492" stroke="#C6C6C6" stroke-width="1.4256"/>
<line x1="27.1211" y1="524.115" x2="204.199" y2="524.115" stroke="#C6C6C6" stroke-width="1.4256"/>
<line x1="27.1196" y1="508.803" x2="204.198" y2="508.803" stroke="#C6C6C6" stroke-width="1.4256"/>
<line x1="27.1196" y1="478.18" x2="204.198" y2="478.18" stroke="#C6C6C6" stroke-width="1.4256"/>
<line x1="27.1196" y1="493.494" x2="204.198" y2="493.494" stroke="#C6C6C6" stroke-width="1.4256"/>
<line x1="95.7123" y1="479" x2="95.7123" y2="538" stroke="#C6C6C6" stroke-width="1.4256"/>
<line x1="131.712" y1="479" x2="131.712" y2="538" stroke="#C6C6C6" stroke-width="1.4256"/>
<line x1="168.712" y1="479" x2="168.712" y2="538" stroke="#C6C6C6" stroke-width="1.4256"/>
<path d="M27.8334 477.996H203.486V526.88C203.486 532.8 198.687 537.599 192.766 537.599H38.5528C32.6326 537.599 27.8334 532.8 27.8334 526.88V477.996Z" stroke="#545454" stroke-width="1.4256"/>
<path d="M103.261 449.379C102.726 449.379 102.267 449.19 101.884 448.812C101.506 448.428 101.317 447.969 101.317 447.435C101.317 446.905 101.506 446.452 101.884 446.074C102.267 445.696 102.726 445.507 103.261 445.507C103.779 445.507 104.233 445.696 104.621 446.074C105.01 446.452 105.205 446.905 105.205 447.435C105.205 447.791 105.113 448.118 104.929 448.415C104.751 448.706 104.516 448.941 104.224 449.119C103.933 449.292 103.612 449.379 103.261 449.379ZM114.554 449.379C114.019 449.379 113.56 449.19 113.177 448.812C112.799 448.428 112.61 447.969 112.61 447.435C112.61 446.905 112.799 446.452 113.177 446.074C113.56 445.696 114.019 445.507 114.554 445.507C115.072 445.507 115.526 445.696 115.915 446.074C116.304 446.452 116.498 446.905 116.498 447.435C116.498 447.791 116.406 448.118 116.223 448.415C116.044 448.706 115.809 448.941 115.518 449.119C115.226 449.292 114.905 449.379 114.554 449.379ZM125.847 449.379C125.313 449.379 124.854 449.19 124.47 448.812C124.092 448.428 123.903 447.969 123.903 447.435C123.903 446.905 124.092 446.452 124.47 446.074C124.854 445.696 125.313 445.507 125.847 445.507C126.366 445.507 126.819 445.696 127.208 446.074C127.597 446.452 127.791 446.905 127.791 447.435C127.791 447.791 127.7 448.118 127.516 448.415C127.338 448.706 127.103 448.941 126.811 449.119C126.52 449.292 126.198 449.379 125.847 449.379Z" fill="#545454"/>
<path d="M79.1044 79.9785H69.8232V53.7967H79.1811C81.8147 53.7967 84.0817 54.3208 85.9823 55.3691C87.8828 56.4089 89.3445 57.9047 90.3672 59.8564C91.3985 61.8081 91.9141 64.1433 91.9141 66.862C91.9141 69.5893 91.3985 71.9331 90.3672 73.8933C89.3445 75.8535 87.8743 77.3578 85.9567 78.4061C84.0476 79.4544 81.7635 79.9785 79.1044 79.9785ZM75.3587 75.2356H78.8743C80.5107 75.2356 81.8871 74.9458 83.0036 74.3663C84.1286 73.7782 84.9723 72.8706 85.5348 71.6433C86.1058 70.4075 86.3914 68.8137 86.3914 66.862C86.3914 64.9274 86.1058 63.3464 85.5348 62.1191C84.9723 60.8919 84.1328 59.9885 83.0164 59.4089C81.8999 58.8294 80.5235 58.5396 78.8871 58.5396H75.3587V75.2356ZM99.0508 79.9785H93.119L102.157 53.7967L109.291 53.7967L118.316 79.9785H112.385L105.826 59.7797H105.622L99.0508 79.9785ZM98.6801 69.6873H112.691V74.0083H98.6801V69.6873ZM117.271 58.3606V53.7967H138.774V58.3606H130.759V79.9785H125.287V58.3606H117.271ZM143.629 79.9785H137.697L146.735 53.7967H153.869L162.895 79.9785H156.963L150.404 59.7797H150.2L143.629 79.9785ZM143.258 69.6873H157.27V74.0083H143.258V69.6873Z" fill="#545454"/>
<path d="M368.035 62.9629H362.435C362.333 62.2385 362.124 61.595 361.809 61.0325C361.494 60.4615 361.089 59.9757 360.595 59.5751C360.1 59.1745 359.529 58.8677 358.881 58.6547C358.242 58.4416 357.548 58.3351 356.798 58.3351C355.443 58.3351 354.262 58.6717 353.256 59.345C352.251 60.0098 351.471 60.9814 350.917 62.2598C350.363 63.5297 350.086 65.0723 350.086 66.8876C350.086 68.7541 350.363 70.3223 350.917 71.5922C351.479 72.862 352.264 73.8208 353.269 74.4686C354.275 75.1163 355.438 75.4402 356.759 75.4402C357.501 75.4402 358.187 75.3422 358.818 75.1461C359.457 74.9501 360.024 74.6646 360.518 74.2896C361.012 73.9061 361.421 73.4416 361.745 72.8961C362.077 72.3507 362.308 71.7285 362.435 71.0297L368.035 71.0552C367.89 72.2569 367.528 73.416 366.948 74.5325C366.377 75.6404 365.606 76.6333 364.634 77.5112C363.671 78.3805 362.521 79.0708 361.183 79.5822C359.853 80.085 358.349 80.3365 356.67 80.3365C354.335 80.3365 352.247 79.8081 350.406 78.7512C348.573 77.6944 347.124 76.1646 346.059 74.1618C345.002 72.1589 344.474 69.7342 344.474 66.8876C344.474 64.0325 345.011 61.6035 346.085 59.6007C347.158 57.5978 348.616 56.0723 350.457 55.024C352.298 53.9672 354.369 53.4387 356.67 53.4387C358.187 53.4387 359.593 53.6518 360.889 54.0779C362.193 54.5041 363.347 55.1262 364.353 55.9444C365.359 56.7541 366.177 57.747 366.808 58.9231C367.447 60.0993 367.856 61.4458 368.035 62.9629ZM396.064 66.8876C396.064 69.7427 395.523 72.1717 394.44 74.1745C393.367 76.1774 391.901 77.7072 390.043 78.764C388.193 79.8123 386.114 80.3365 383.804 80.3365C381.477 80.3365 379.389 79.8081 377.54 78.7512C375.69 77.6944 374.229 76.1646 373.155 74.1618C372.081 72.1589 371.544 69.7342 371.544 66.8876C371.544 64.0325 372.081 61.6035 373.155 59.6007C374.229 57.5978 375.69 56.0723 377.54 55.024C379.389 53.9672 381.477 53.4387 383.804 53.4387C386.114 53.4387 388.193 53.9672 390.043 55.024C391.901 56.0723 393.367 57.5978 394.44 59.6007C395.523 61.6035 396.064 64.0325 396.064 66.8876ZM390.452 66.8876C390.452 65.0382 390.175 63.4785 389.621 62.2086C389.075 60.9387 388.304 59.9757 387.307 59.3194C386.31 58.6632 385.142 58.3351 383.804 58.3351C382.466 58.3351 381.298 58.6632 380.301 59.3194C379.304 59.9757 378.528 60.9387 377.974 62.2086C377.429 63.4785 377.156 65.0382 377.156 66.8876C377.156 68.737 377.429 70.2967 377.974 71.5666C378.528 72.8365 379.304 73.7995 380.301 74.4558C381.298 75.112 382.466 75.4402 383.804 75.4402C385.142 75.4402 386.31 75.112 387.307 74.4558C388.304 73.7995 389.075 72.8365 389.621 71.5666C390.175 70.2967 390.452 68.737 390.452 66.8876ZM422.064 53.7967V79.9785H417.282L405.892 63.4998H405.7V79.9785H400.164V53.7967H405.022L416.324 70.2626H416.554V53.7967H422.064ZM449.738 62.9629H444.139C444.036 62.2385 443.827 61.595 443.512 61.0325C443.197 60.4615 442.792 59.9757 442.298 59.5751C441.803 59.1745 441.232 58.8677 440.585 58.6547C439.945 58.4416 439.251 58.3351 438.501 58.3351C437.146 58.3351 435.965 58.6717 434.96 59.345C433.954 60.0098 433.174 60.9814 432.62 62.2598C432.066 63.5297 431.789 65.0723 431.789 66.8876C431.789 68.7541 432.066 70.3223 432.62 71.5922C433.183 72.862 433.967 73.8208 434.972 74.4686C435.978 75.1163 437.141 75.4402 438.462 75.4402C439.204 75.4402 439.89 75.3422 440.521 75.1461C441.16 74.9501 441.727 74.6646 442.221 74.2896C442.715 73.9061 443.124 73.4416 443.448 72.8961C443.781 72.3507 444.011 71.7285 444.139 71.0297L449.738 71.0552C449.593 72.2569 449.231 73.416 448.651 74.5325C448.08 75.6404 447.309 76.6333 446.337 77.5112C445.374 78.3805 444.224 79.0708 442.886 79.5822C441.556 80.085 440.052 80.3365 438.373 80.3365C436.038 80.3365 433.95 79.8081 432.109 78.7512C430.276 77.6944 428.827 76.1646 427.762 74.1618C426.705 72.1589 426.177 69.7342 426.177 66.8876C426.177 64.0325 426.714 61.6035 427.788 59.6007C428.862 57.5978 430.319 56.0723 432.16 55.024C434.001 53.9672 436.072 53.4387 438.373 53.4387C439.89 53.4387 441.296 53.6518 442.592 54.0779C443.896 54.5041 445.05 55.1262 446.056 55.9444C447.062 56.7541 447.88 57.747 448.511 58.9231C449.15 60.0993 449.559 61.4458 449.738 62.9629ZM453.707 79.9785V53.7967H471.349V58.3606H459.243V64.5993H470.442V69.1632H459.243V75.4146H471.401V79.9785H453.707ZM475.75 79.9785V53.7967H486.08C488.066 53.7967 489.758 54.176 491.155 54.9345C492.553 55.6845 493.618 56.7285 494.351 58.0666C495.093 59.3961 495.463 60.9302 495.463 62.6689C495.463 64.4075 495.088 65.9416 494.338 67.2711C493.588 68.6007 492.502 69.6362 491.079 70.3777C489.664 71.1191 487.951 71.4899 485.939 71.4899H479.356V67.0538H485.044C486.11 67.0538 486.988 66.8706 487.678 66.5041C488.377 66.1291 488.897 65.6135 489.238 64.9572C489.587 64.2924 489.762 63.5297 489.762 62.6689C489.762 61.7995 489.587 61.041 489.238 60.3933C488.897 59.737 488.377 59.2299 487.678 58.872C486.979 58.5055 486.093 58.3223 485.019 58.3223H481.286V79.9785H475.75ZM498.062 58.3606V53.7967L519.565 53.7967V58.3606H511.549V79.9785H506.077V58.3606L498.062 58.3606ZM537.309 61.3265C537.207 60.2953 536.768 59.4941 535.992 58.9231C535.217 58.3521 534.164 58.0666 532.835 58.0666C531.931 58.0666 531.168 58.1944 530.546 58.4501C529.924 58.6973 529.447 59.0424 529.114 59.4856C528.791 59.9288 528.629 60.4316 528.629 60.9941C528.612 61.4629 528.71 61.872 528.923 62.2214C529.144 62.5708 529.447 62.8734 529.83 63.1291C530.214 63.3762 530.657 63.5936 531.16 63.7811C531.663 63.96 532.2 64.1135 532.771 64.2413L535.123 64.8038C536.265 65.0595 537.313 65.4004 538.268 65.8265C539.222 66.2527 540.049 66.7768 540.748 67.399C541.447 68.0211 541.988 68.7541 542.372 69.5978C542.764 70.4416 542.964 71.4089 542.972 72.4998C542.964 74.1021 542.555 75.4913 541.745 76.6674C540.944 77.835 539.785 78.7427 538.268 79.3904C536.759 80.0297 534.94 80.3493 532.809 80.3493C530.695 80.3493 528.854 80.0254 527.286 79.3777C525.727 78.7299 524.508 77.7711 523.63 76.5012C522.761 75.2228 522.305 73.6419 522.262 71.7583H527.619C527.678 72.6362 527.93 73.3691 528.373 73.9572C528.825 74.5368 529.425 74.9757 530.175 75.274C530.934 75.5637 531.791 75.7086 532.745 75.7086C533.683 75.7086 534.497 75.5723 535.187 75.2995C535.886 75.0268 536.427 74.6475 536.81 74.1618C537.194 73.676 537.386 73.1177 537.386 72.487C537.386 71.899 537.211 71.4047 536.862 71.0041C536.521 70.6035 536.018 70.2626 535.353 69.9814C534.697 69.7001 533.891 69.4444 532.937 69.2143L530.086 68.4984C527.879 67.9615 526.136 67.122 524.857 65.9799C523.579 64.8379 522.944 63.2995 522.952 61.3649C522.944 59.7797 523.366 58.3947 524.218 57.2101C525.079 56.0254 526.259 55.1007 527.759 54.4359C529.259 53.7711 530.964 53.4387 532.873 53.4387C534.816 53.4387 536.512 53.7711 537.961 54.4359C539.418 55.1007 540.552 56.0254 541.362 57.2101C542.171 58.3947 542.589 59.7669 542.614 61.3265H537.309Z" fill="#545454"/>
</svg>
