<svg width="613" height="135" viewBox="0 0 613 135" fill="none" xmlns="http://www.w3.org/2000/svg">
<ellipse cx="293.965" cy="67.732" rx="44.3891" ry="44.3892" fill="#9DC1F0"/>
<ellipse cx="408.835" cy="67.732" rx="44.3891" ry="44.3892" fill="#9DC1F0"/>
<rect x="152.497" y="18.708" width="25.4829" height="98.0476" rx="8" fill="#428AEA"/>
<rect x="152.497" y="116.756" width="25.4829" height="65.9114" rx="8" transform="rotate(-90 152.497 116.756)" fill="#428AEA"/>
<rect x="36" y="18.708" width="25.4829" height="98.0476" rx="8" fill="#428AEA"/>
<rect x="36" y="116.756" width="25.4829" height="65.9114" rx="8" transform="rotate(-90 36 116.756)" fill="#428AEA"/>
<path d="M474.522 39.6321C471.423 35.6661 472.713 29.8583 477.199 27.5763L486.226 22.9843C489.643 21.2458 493.814 22.1766 496.168 25.2033L535.915 76.3082C538.284 79.3533 538.142 83.6547 535.578 86.537L528.957 93.9791C525.638 97.71 519.75 97.5221 516.676 93.5872L474.522 39.6321Z" fill="#428AEA"/>
<path d="M572.889 39.6321C575.987 35.6661 574.698 29.8583 570.212 27.5763L561.185 22.9843C557.767 21.2458 553.597 22.1766 551.243 25.2033L511.495 76.3082C509.127 79.3533 509.269 83.6547 511.833 86.537L518.453 93.9791C521.772 97.71 527.66 97.5221 530.735 93.5872L572.889 39.6321Z" fill="#428AEA"/>
<path d="M471.855 29.415C471.855 24.9968 475.437 21.415 479.855 21.415H489.338C493.757 21.415 497.338 24.9968 497.338 29.415V111.463C497.338 115.881 493.757 119.463 489.338 119.463H479.855C475.437 119.463 471.855 115.881 471.855 111.463V29.415Z" fill="#428AEA"/>
<path d="M550.43 29.415C550.43 24.9968 554.012 21.415 558.43 21.415H567.913C572.331 21.415 575.913 24.9968 575.913 29.415V111.463C575.913 115.881 572.331 119.463 567.913 119.463H558.43C554.012 119.463 550.43 115.881 550.43 111.463V29.415Z" fill="#428AEA"/>
</svg>
